<svg xmlns="http://www.w3.org/2000/svg" viewBox="0 0 100 100">
  <!-- Black background -->
  <rect width="100" height="100" fill="#000000" rx="12"/>
  
  <!-- Abstract M with paintbrush strokes -->
  <g stroke="#00ff88" fill="none" stroke-linecap="round" stroke-linejoin="round">
    <!-- Left vertical stroke - flowing brush -->
    <path d="M 20 85 Q 22 25, 28 30 Q 32 20, 38 28" stroke-width="4" opacity="0.95"/>
    <path d="M 25 75 Q 28 40, 32 35" stroke-width="3" opacity="0.7"/>
    
    <!-- Center V - dynamic flow -->
    <path d="M 38 28 Q 50 12, 62 28" stroke-width="4" opacity="0.95"/>
    <path d="M 45 25 Q 50 18, 55 25" stroke-width="2.5" opacity="0.6"/>
    
    <!-- Right vertical stroke - mirror with variation -->
    <path d="M 62 28 Q 68 20, 72 30 Q 78 25, 80 30" stroke-width="4" opacity="0.95"/>
    <path d="M 80 30 Q 78 50, 80 85" stroke-width="4" opacity="0.95"/>
    <path d="M 75 35 Q 77 60, 80 85" stroke-width="3" opacity="0.7"/>
    
    <!-- Left stroke continuation -->
    <path d="M 32 35 Q 28 55, 20 85" stroke-width="4" opacity="0.85"/>
    
    <!-- Additional artistic brush strokes -->
    <path d="M 22 80 Q 26 50, 30 38" stroke-width="2.5" opacity="0.5"/>
    <path d="M 70 38 Q 74 50, 78 80" stroke-width="2.5" opacity="0.5"/>
    
    <!-- Accent highlights -->
    <path d="M 38 28 Q 50 12, 62 28" stroke="#00ccff" stroke-width="2" opacity="0.5"/>
    <path d="M 28 30 Q 35 22, 38 28" stroke="#00ccff" stroke-width="1.5" opacity="0.4"/>
    <path d="M 62 28 Q 68 22, 72 30" stroke="#00ccff" stroke-width="1.5" opacity="0.4"/>
  </g>
  
  <!-- Subtle glow effect -->
  <circle cx="50" cy="50" r="45" fill="none" stroke="#00ff88" stroke-width="0.5" opacity="0.1"/>
</svg>
