<svg width="80" height="80" viewBox="0 0 80 80" fill="none" xmlns="http://www.w3.org/2000/svg">
  <!-- Santa's sleigh -->
  <path d="M15 50 Q10 48 8 45 L12 43 Q15 42 20 42 L60 42 Q65 42 68 45 L72 47 Q70 50 65 52 Z" fill="#8B4513" stroke="#654321" stroke-width="1.5"/>
  
  <!-- Sleigh runners -->
  <path d="M10 52 Q8 54 10 56 L65 56 Q67 54 65 52" fill="#C0C0C0" stroke="#808080" stroke-width="1"/>
  
  <!-- Santa's body -->
  <ellipse cx="40" cy="35" rx="12" ry="14" fill="#DC143C"/>
  
  <!-- Belt -->
  <rect x="28" y="38" width="24" height="4" fill="#1a1a1a"/>
  <rect x="38" y="37" width="4" height="6" fill="#FFD700"/>
  
  <!-- Santa's head -->
  <circle cx="40" cy="20" r="8" fill="#FFE4C4"/>
  
  <!-- Santa's hat -->
  <path d="M32 20 L40 8 L48 20 Z" fill="#DC143C"/>
  <circle cx="40" cy="8" r="3" fill="#FFFFFF"/>
  <ellipse cx="40" cy="20" rx="9" ry="2.5" fill="#FFFFFF"/>
  
  <!-- Eyes -->
  <circle cx="37" cy="19" r="1.5" fill="#000000"/>
  <circle cx="43" cy="19" r="1.5" fill="#000000"/>
  
  <!-- Nose -->
  <circle cx="40" cy="22" r="1.5" fill="#FF6B6B"/>
  
  <!-- Beard -->
  <path d="M32 23 Q32 28 35 30 Q37 31 40 31 Q43 31 45 30 Q48 28 48 23" fill="#FFFFFF"/>
  
  <!-- Arms -->
  <ellipse cx="28" cy="35" rx="3" ry="8" fill="#DC143C" transform="rotate(-20 28 35)"/>
  <ellipse cx="52" cy="35" rx="3" ry="8" fill="#DC143C" transform="rotate(20 52 35)"/>
  
  <!-- Hands waving -->
  <circle cx="25" cy="30" r="3" fill="#FFE4C4"/>
  <circle cx="55" cy="30" r="3" fill="#FFE4C4"/>
  
  <!-- White trim on coat -->
  <ellipse cx="40" cy="48" rx="13" ry="2" fill="#FFFFFF"/>
  
  <!-- Sparkles -->
  <path d="M70 15 L71 17 L73 18 L71 19 L70 21 L69 19 L67 18 L69 17 Z" fill="#FFD700" opacity="0.8"/>
  <path d="M12 25 L13 26.5 L14.5 27.5 L13 28.5 L12 30 L11 28.5 L9.5 27.5 L11 26.5 Z" fill="#87CEEB" opacity="0.8"/>
  <path d="M65 35 L66 36 L67 37 L66 38 L65 39 L64 38 L63 37 L64 36 Z" fill="#FFD700" opacity="0.8"/>
</svg>
